<?xml version="1.0" encoding="UTF-8"?>
<svg clip-rule="evenodd" fill-rule="evenodd" stroke-linecap="round" stroke-linejoin="round" stroke-miterlimit="1.5" version="1.1" viewBox="0 0 2481 2406" xmlns="http://www.w3.org/2000/svg" xmlns:serif="http://www.serif.com/">

	<!-- Backgrounds -->
	<rect width="2480.3" height="2405.2" fill="#fff"/>

	<!-- Pillars -->
	<!-- 2 (Introvert - Extrovert) -->
	<rect id="2.1" x="112.87" y="24.042" width="963.63" height="2308.8" rx="35" ry="35" fill="{{tb40.result.[2].[0].color}}aa" fill-opacity=".31" stroke-width="1.7488"/>
	<rect id="2.2" x="1403.8" y="24.042" width="963.63" height="2308.8" rx="35" ry="35" fill="{{tb40.result.[2].[1].color}}aa" fill-opacity=".31" stroke-width="1.7488"/>

	<!-- 3 -->
	<rect id="3.1" x="1145.3" y="492.49" width="189.73" height="78.416" ry="20" fill="{{tb40.result.[3].[0].color}}"/>
	<rect id="3.2" x="1145.3" y="1273.6" width="189.73" height="78.416" ry="30" fill="{{tb40.result.[3].[1].color}}"/>
	<rect id="3.3" x="1145.3" y="2054.7" width="189.73" height="78.416" ry="30" fill="{{tb40.result.[3].[2].color}}"/>

	<!-- 6 -->
	<rect id="6.1" x="840.44" y="492.49" width="189.73" height="78.416" ry="30" fill="{{tb40.result.[6].[0].color}}"/>
	<rect id="6.2" x="840.44" y="1273.6" width="189.73" height="78.416" ry="30" fill="{{tb40.result.[6].[1].color}}"/>
	<rect id="6.3" x="840.44" y="2054.7" width="189.73" height="78.416" ry="30" fill="{{tb40.result.[6].[2].color}}"/>
	<rect id="6.4" x="1450.2" y="492.49" width="189.73" height="78.416" ry="30" fill="{{tb40.result.[6].[3].color}}"/>
	<rect id="6.5" x="1450.2" y="1273.6" width="189.73" height="78.416" ry="30" fill="{{tb40.result.[6].[4].color}}"/>
	<rect id="6.6" x="1450.2" y="2054.7" width="189.73" height="78.416" ry="30" fill="{{tb40.result.[6].[5].color}}"/>


	<!-- 18 -->
    <path id="18.1" d="m630.45 58.552h29.128a29.128 29.128 0 0129.128 29.128v106.95a29.128 29.128 0 01-29.128 29.128h-29.128z" fill="{{tb40.result.[18].[0].color}}"/>
    <path id="18.2" d="m630.45 232.13h29.128a29.128 29.128 0 0129.128 29.128v106.95a29.128 29.128 0 01-29.128 29.128h-29.128z" fill="{{tb40.result.[18].[1].color}}"/>
    <path id="18.3" d="m630.45 405.7h29.128a29.128 29.128 0 0129.128 29.128v106.95a29.128 29.128 0 01-29.128 29.128h-29.128z" fill="{{tb40.result.[18].[2].color}}"/>
    <path id="18.4" d="m630.45 926.43h29.128a29.128 29.128 0 0129.128 29.128v106.95a29.128 29.128 0 01-29.128 29.128h-29.128z" fill="{{tb40.result.[18].[3].color}}"/>
    <path id="18.5" d="m630.45 1100h29.128a29.128 29.128 0 0129.128 29.128v20.16a29.128 29.128 0 01-29.128 29.128h-29.128z" fill="{{tb40.result.[18].[4].color}}"/>
    <path id="18.6" d="m630.45 1186.8h29.128a29.128 29.128 0 0129.128 29.128v106.95a29.128 29.128 0 01-29.128 29.128h-29.128z" fill="{{tb40.result.[18].[5].color}}"/>
    <path id="18.7" d="m630.45 1707.5h29.128a29.128 29.128 0 0129.128 29.128v20.16a29.128 29.128 0 01-29.128 29.128h-29.128z" fill="{{tb40.result.[18].[6].color}}"/>
    <path id="18.8" d="m630.45 1794.3h29.128a29.128 29.128 0 0129.128 29.128v106.95a29.128 29.128 0 01-29.128 29.128h-29.128z" fill="{{tb40.result.[18].[7].color}}"/>
    <path id="18.9" d="m630.45 1967.9h29.128a29.128 29.128 0 0129.128 29.128v193.74a29.128 29.128 0 01-29.128 29.128h-29.128z" fill="{{tb40.result.[18].[8].color}}"/>

    <path id="18.10" d="m1820.7 58.552h29.128v251.99h-29.128a29.128 29.128 0 01-29.128-29.128v-193.74a29.128 29.128 0 0129.128-29.128z" fill="{{tb40.result.[18].[9].color}}"/>
    <path id="18.11" d="m1820.7 318.92h29.128v165.2h-29.128a29.128 29.128 0 01-29.128-29.128v-106.95a29.128 29.128 0 0129.128-29.128z" fill="{{tb40.result.[18].[10].color}}"/>
    <path id="18.12" d="m1820.7 492.49h29.128v165.2h-29.132a29.124 29.124 0 01-29.124-29.124v-106.95a29.128 29.128 0 0129.128-29.128z" fill="{{tb40.result.[18].[11].color}}"/>
    <path id="18.13" d="m1820.7 752.86h29.123v338.78h-29.128a29.128 29.128 0 01-29.128-29.128v-280.52a29.133 29.133 0 0129.133-29.133z" fill="{{tb40.result.[18].[12].color}}"/>
    <path id="18.14" d="m1820.7 1100h29.128v165.2h-29.128a29.128 29.128 0 01-29.128-29.128v-106.95a29.128 29.128 0 0129.128-29.128z" fill="{{tb40.result.[18].[13].color}}"/>
    <path id="18.15" d="m1820.7 1273.6h29.128v165.2h-29.132a29.124 29.124 0 01-29.124-29.124v-106.95a29.128 29.128 0 0129.128-29.128z" fill="{{tb40.result.[18].[14].color}}"/>
    <path id="18.16" d="m1820.7 1534h29.128v165.2h-29.128a29.128 29.128 0 01-29.128-29.128v-106.95a29.128 29.128 0 0129.128-29.128z" fill="{{tb40.result.[18].[15].color}}"/>
    <path id="18.17" d="m1820.7 1707.5h29.128v165.2h-29.128a29.128 29.128 0 01-29.128-29.128v-106.95a29.128 29.128 0 0129.128-29.128z" fill="{{tb40.result.[18].[16].color}}"/>
    <path id="18.18" d="m1820.7 1881.1h29.128v338.78h-29.128a29.128 29.128 0 01-29.128-29.128v-280.52a29.128 29.128 0 0129.128-29.128z" fill="{{tb40.result.[18].[17].color}}"/>

	<!-- Unused 18 -->
	<path d="m659.58 579.28h-29.128v78.417h29.128a29.128 29.128 135 0029.128-29.128v-20.161a29.128 29.128 45 00-29.128-29.128zm24.904 29.085v20.204a24.904 24.904 135 01-24.904 24.904h-24.904v-69.969h24.947a24.861 24.861 45 0124.861 24.861z" fill="#838fc4"/>
	<path d="m659.68 752.86h-29.235v165.2h29.128a29.128 29.128 135 0029.128-29.128v-107.06a29.021 29.021 45 00-29.021-29.021zm24.797 29.128v106.95a24.904 24.904 135 01-24.904 24.904h-24.904v-156.76h24.904a24.904 24.904 45 0124.904 24.904z" fill="#838fc4"/>
	<path d="m659.58 1360.4h-29.128v78.417h29.128a29.128 29.128 135 0029.128-29.128v-20.161a29.128 29.128 45 00-29.128-29.128zm24.904 29.129v20.16a24.904 24.904 135 01-24.904 24.904h-24.904v-69.968h24.904a24.904 24.904 45 0124.904 24.904z" fill="#838fc4"/>
	<path d="m659.58 1534h-29.128v165.2h29.128a29.128 29.128 135 0029.128-29.128v-106.95a29.128 29.128 45 00-29.128-29.128zm24.904 29.128v106.95a24.904 24.904 135 01-24.904 24.904h-24.904v-156.76h24.904a24.904 24.904 45 0124.904 24.904z" fill="#838fc4"/>


	<!-- 40 -->
	<rect id="40.1" x="420.46" y="58.552" width="189.73" height="78.416" fill="{{tb40.result.[40].[0].color}}"/>
	<rect id="40.2" x="420.46" y="145.34" width="189.73" height="78.416" fill="{{tb40.result.[40].[1].color}}"/>
	<rect id="40.3" x="420.46" y="232.13" width="189.73" height="78.416" fill="{{tb40.result.[40].[2].color}}"/>
	<rect id="40.4" x="420.46" y="318.92" width="189.73" height="78.416" fill="{{tb40.result.[40].[3].color}}"/>
	<rect id="40.5" x="420.46" y="405.7" width="189.73" height="78.416" fill="{{tb40.result.[40].[4].color}}"/>
	<rect id="40.6" x="420.46" y="492.49" width="189.73" height="78.416" fill="{{tb40.result.[40].[5].color}}"/>

	<rect id="40.7" x="420.46" y="926.43" width="189.73" height="78.416" fill="{{tb40.result.[40].[6].color}}"/>
	<rect id="40.8" x="420.46" y="1013.2" width="189.73" height="78.416" fill="{{tb40.result.[40].[7].color}}"/>
	<rect id="40.9" x="420.46" y="1100" width="189.73" height="78.416" fill="{{tb40.result.[40].[8].color}}"/>
	<rect id="40.10" x="420.46" y="1186.8" width="189.73" height="78.416" fill="{{tb40.result.[40].[9].color}}"/>
	<rect id="40.11" x="420.46" y="1273.6" width="189.73" height="78.416" fill="{{tb40.result.[40].[10].color}}"/>

	<rect id="40.12" x="420.46" y="1707.5" width="189.73" height="78.416" fill="{{tb40.result.[40].[11].color}}"/>
	<rect id="40.13" x="420.46" y="1794.3" width="189.73" height="78.416" fill="{{tb40.result.[40].[12].color}}"/>
	<rect id="40.14" x="420.46" y="1881.1" width="189.73" height="78.416" fill="{{tb40.result.[40].[13].color}}"/>
	<rect id="40.15" x="420.46" y="1967.9" width="189.73" height="78.416" fill="{{tb40.result.[40].[14].color}}"/>
	<rect id="40.16" x="420.46" y="2054.7" width="189.73" height="78.416" fill="{{tb40.result.[40].[15].color}}"/>
	<rect id="40.17" x="420.46" y="2141.5" width="189.73" height="78.416" fill="{{tb40.result.[40].[16].color}}"/>

	<rect id="40.18" x="1870.1" y="58.552" width="189.73" height="78.416" fill="{{tb40.result.[40].[17].color}}"/>
	<rect id="40.19" x="1870.1" y="145.34" width="189.73" height="78.416" fill="{{tb40.result.[40].[18].color}}"/>
	<rect id="40.20" x="1870.1" y="232.13" width="189.73" height="78.416" fill="{{tb40.result.[40].[19].color}}"/>
	<rect id="40.21" x="1870.1" y="318.92" width="189.73" height="78.416" fill="{{tb40.result.[40].[20].color}}"/>
	<rect id="40.22" x="1870.1" y="405.7" width="189.73" height="78.416" fill="{{tb40.result.[40].[21].color}}"/>
	<rect id="40.23" x="1870.1" y="492.49" width="189.73" height="78.416" fill="{{tb40.result.[40].[22].color}}"/>
	<rect id="40.24" x="1870.1" y="579.28" width="189.73" height="78.416" fill="{{tb40.result.[40].[23].color}}"/>

	<rect id="40.25" x="1870.1" y="752.86" width="189.73" height="78.416" fill="{{tb40.result.[40].[24].color}}"/>
	<rect id="40.26" x="1870.1" y="839.65" width="189.73" height="78.416" fill="{{tb40.result.[40].[25].color}}"/>
	<rect id="40.27" x="1870.1" y="926.43" width="189.73" height="78.416" fill="{{tb40.result.[40].[26].color}}"/>
	<rect id="40.28" x="1870.1" y="1013.2" width="189.73" height="78.416" fill="{{tb40.result.[40].[27].color}}"/>
	<rect id="40.29" x="1870.1" y="1100" width="189.73" height="78.416" fill="{{tb40.result.[40].[28].color}}"/>
	<rect id="40.30" x="1870.1" y="1186.8" width="189.73" height="78.416" fill="{{tb40.result.[40].[29].color}}"/>
	<rect id="40.31" x="1870.1" y="1273.6" width="189.73" height="78.416" fill="{{tb40.result.[40].[30].color}}"/>
	<rect id="40.32" x="1870.1" y="1360.4" width="189.73" height="78.416" fill="{{tb40.result.[40].[31].color}}"/>

	<rect id="40.33" x="1870.1" y="1534" width="189.73" height="78.416" fill="{{tb40.result.[40].[32].color}}"/>
	<rect id="40.34" x="1870.1" y="1620.7" width="189.73" height="78.416" fill="{{tb40.result.[40].[33].color}}"/>
	<rect id="40.35" x="1870.1" y="1707.5" width="189.73" height="78.416" fill="{{tb40.result.[40].[34].color}}"/>
	<rect id="40.36" x="1870.1" y="1794.3" width="189.73" height="78.416" fill="{{tb40.result.[40].[35].color}}"/>
	<rect id="40.37" x="1870.1" y="1881.1" width="189.73" height="78.416" fill="{{tb40.result.[40].[36].color}}"/>
	<rect id="40.38" x="1870.1" y="1967.9" width="189.73" height="78.416" fill="{{tb40.result.[40].[37].color}}"/>
	<rect id="40.39" x="1870.1" y="2054.7" width="189.73" height="78.416" fill="{{tb40.result.[40].[38].color}}"/>
	<rect id="40.40" x="1870.1" y="2141.5" width="189.73" height="78.416" fill="{{tb40.result.[40].[39].color}}"/>

	<!-- Unused 40 -->
    <g fill="#838fc4">
        <path d="m610.19 1360.4h-189.73v78.417h189.73zm-4.224 4.225v69.968h-181.28v-69.968z"/>
        <path d="m610.19 579.28h-189.73v78.417h189.73zm-4.224 4.224v69.969h-181.28v-69.969z"/>
        <path d="m610.19 1620.7h-189.73v78.416h189.73zm-4.224 4.224v69.968h-181.28v-69.968z"/>
        <path d="m610.19 839.64h-189.73v78.416h189.73zm-4.224 4.224v69.968h-181.28v-69.968z"/>
        <path d="m610.19 1534h-189.73v78.416h189.73zm-4.224 4.224v69.968h-181.28v-69.968z"/>
        <path d="m610.19 752.86h-189.73v78.416h189.73zm-4.224 4.224v69.968h-181.28v-69.968z"/>
    </g>

	<!-- Icons -->
	<path d="m1515.2 1851.6h64.948c-4.427-10.531-13.732-18.708-25.145-21.129.509-1.062.818-2.237.818-3.491 0-4.492-3.655-8.147-8.147-8.147s-8.146 3.655-8.146 8.147c0 1.254.308 2.429.817 3.491-11.413 2.421-20.718 10.598-25.145 21.129zm32.474-27.336c1.498 0 2.716 1.217 2.716 2.716 0 1.498-1.218 2.715-2.716 2.715s-2.715-1.217-2.715-2.715c0-1.499 1.217-2.716 2.715-2.716z" fill-rule="nonzero"/>
	<path d="m1591.4 1857h-87.077v2.716c0 4.499 3.647 8.146 8.147 8.146h70.784c4.499 0 8.146-3.647 8.146-8.146z" fill-rule="nonzero"/>
	<path d="m1521.9 1905.5c1.543-1.358 3.588-2.079 5.585-2.031l27.189.652 26.423-24.901-1.993-1.993c-2.756-2.748-7.135-2.941-10.131-.456l-15.426 12.799h-22.103v-5.431h19.009v-2.715c0-4.499-3.648-8.147-8.147-8.147h-15.033c-3.625 0-7.036 1.414-9.624 4.002l-18.972 19.266 16.782 14.93z" fill-rule="nonzero"/>
	<path d="m972.63 1853.5c-.268-19.163-15.94-34.668-35.165-34.668-13.345 0-25.269 7.489-31.213 18.932 3.811.028 7.537 1.021 10.824 2.853 3.335-1.859 7.122-2.856 10.991-2.856 6.025 0 11.689 2.346 15.95 6.607 4.255 4.255 6.598 9.919 6.598 15.949 0 6.031-2.343 11.695-6.598 15.95l-26.941 26.941-2.715-2.715v11.023h41.41v-15.984h16.862v-17.904h9.016z" clip-rule="evenodd" fill-rule="nonzero" stroke-linecap="round" stroke-linejoin="round" stroke-miterlimit="1.5"/>
	<path d="m940.18 1848.2c-3.235-3.235-7.535-5.016-12.11-5.016-4.065 0-7.914 1.407-10.991 3.991-3.077-2.584-6.926-3.991-10.991-3.991-4.575 0-8.875 1.781-12.11 5.016-3.234 3.235-5.016 7.535-5.016 12.109 0 4.575 1.782 8.875 5.016 12.11l23.101 23.101 23.101-23.101c6.677-6.677 6.677-17.542 0-24.219z" fill-rule="nonzero"/>
	<path d="m1534.2 1059.5v70.958h8.145v-32.945h5.431v32.945h8.146v-70.958z" clip-path="url(#clipPath1362)" fill-rule="nonzero"/>
	<circle cx="1520.6" cy="1045.9" r="8.146" clip-path="url(#clipPath1356)"/>
	<circle cx="1545" cy="1045.9" r="8.146" clip-path="url(#clipPath1350)"/>
	<circle cx="1569.4" cy="1045.9" r="8.146" clip-path="url(#clipPath1344)"/>
	<path d="m1504.3 1070.3h-5.612v10.861h5.612c2.999 0 5.43-2.432 5.43-5.431.001-2.999-2.431-5.43-5.43-5.43z" clip-path="url(#clipPath1338)" fill-rule="nonzero"/>
	<path d="m1517.9 1059.5c-4.578 0-8.606 2.281-11.065 5.752 4.777 1.139 8.35 5.417 8.35 10.539 0 5.99-4.871 10.861-10.861 10.861v13.577c0 1.499 1.216 2.715 2.715 2.715v27.514h8.146v-32.945h5.43v32.945h8.146v-70.958z" clip-path="url(#clipPath1332)" fill-rule="nonzero"/>
	<path d="m1585.7 1070.3c-3 0-5.431 2.431-5.431 5.43s2.432 5.431 5.431 5.431h5.611v-10.861z" clip-path="url(#clipPath1326)" fill-rule="nonzero"/>
	<path d="m1574.9 1075.8c0-5.122 3.572-9.399 8.35-10.539-2.46-3.471-6.488-5.752-11.066-5.752h-10.861v70.958h8.146v-32.945h5.431v32.945h8.145v-27.514c1.5 0 2.716-1.216 2.716-2.715v-13.577c-5.99 0-10.861-4.871-10.861-10.861z" clip-path="url(#clipPath1320)" fill-rule="nonzero"/>
	<path d="m955.24 1063-3.973 1.484c-2.103-1.953-4.629-3.413-7.37-4.261l-.701-4.176h-5.891l-.701 4.176c-2.741.846-5.265 2.309-7.37 4.261l-3.973-1.484-2.945 5.102 3.265 2.694c-.632 2.8-.63 5.717 0 8.518l-3.265 2.695 2.945 5.101 3.973-1.483c2.103 1.952 4.629 3.412 7.37 4.261l.701 4.176h5.891l.701-4.176c2.741-.847 5.265-2.31 7.37-4.261l3.973 1.483 2.945-5.101-3.265-2.695c.632-2.8.63-5.717 0-8.518l3.265-2.694zm-14.99 21.249c-5.069 0-9.194-4.124-9.194-9.194 0-5.069 4.125-9.194 9.194-9.194 5.07 0 9.194 4.125 9.194 9.194 0 5.07-4.124 9.194-9.194 9.194z" clip-path="url(#clipPath2135)" fill-rule="nonzero"/>
	<path d="m940.25 1071.3c-2.075 0-3.763 1.688-3.763 3.763s1.688 3.763 3.763 3.763 3.763-1.688 3.763-3.763-1.688-3.763-3.763-3.763z" clip-path="url(#clipPath2127)" fill-rule="nonzero"/>
	<path d="m977.37 1074.4c0-20.261-16.424-36.686-36.686-36.686-16.322 0-30.153 10.659-34.915 25.396l-1.767 10.933-10.772 17.868v5.417h8.578l3.651 19.94h20.442l3.102 13.136h41.28l-5.112-28.685c7.489-6.716 12.199-16.468 12.199-27.319zm-25.092 17.354c-1.112.8-2.295 1.485-3.54 2.047l-.948 5.646h-15.081l-.948-5.646c-1.245-.562-2.428-1.247-3.54-2.047l-5.366 2.004-7.541-13.062 4.418-3.645c-.134-1.363-.134-2.725 0-4.087l-4.418-3.646 7.541-13.061 5.366 2.004c1.112-.801 2.295-1.485 3.54-2.048l.948-5.645h15.081l.948 5.645c1.245.563 2.428 1.247 3.54 2.048l5.367-2.004 7.54 13.061-4.418 3.645c.134 1.363.134 2.725 0 4.088l4.418 3.645-7.54 13.061z" clip-path="url(#clipPath2119)" fill-rule="nonzero"/>
	<path d="m1506.3 335.73 20.006 5.552c6.105 1.694 12.384 2.541 18.664 2.541 6.279 0 12.558-.847 18.663-2.541l20.006-5.552v-7.538h-77.339z" clip-path="url(#clipPath2240)" fill-rule="nonzero"/>
	<path d="m1589.3 306.94c2.061-3.091 2.565-6.884 1.383-10.406-1.182-3.523-3.872-6.244-7.381-7.466l-34.414-11.988c-2.53-.882-5.315-.882-7.845 0l-34.414 11.988c-3.508 1.222-6.199 3.943-7.381 7.465-1.182 3.523-.678 7.316 1.383 10.407l3.307 4.959h82.056zm-38.674-3.048-5.66-2.968-5.661 2.968 1.073-6.301-4.572-4.466 6.324-.927 2.836-5.728 2.835 5.728 6.324.927-4.572 4.466z" clip-path="url(#clipPath2232)" fill-rule="nonzero"/>
	<rect x="1506.3" y="317.33" width="77.339" height="5.431" clip-path="url(#clipPath2224)" fill-rule="nonzero"/>
	<rect x="913.58" y="262.07" width="8.146" height="13.577" fill-rule="nonzero"/>
	<rect x="927.16" y="256.64" width="8.146" height="19.008" fill-rule="nonzero"/>
	<rect x="940.73" y="262.07" width="8.146" height="19.008" fill-rule="nonzero"/>
	<rect x="954.31" y="267.5" width="8.146" height="24.439" fill-rule="nonzero"/>
	<path d="m962.46 308.24-8.146 5.431 2.94 35.663h-38.466l2.94-35.663-13.578-16.293 5.431-16.293h21.724c0 5.999-4.862 10.862-10.862 10.862 6 0 10.862 4.862 10.862 10.862h5.431c0-4.169-1.573-7.978-4.158-10.862 1.405-1.568 2.511-3.409 3.226-5.431h9.079v10.862h13.577z" fill-rule="nonzero"/>
	<path d="m1270.4 262.05s-4.996 13.129-14.46 10.29c-7.906-2.371-7.452-13.095-3.65-21.941 6.587-15.329-12.225-27.067-12.225-27.067s.294 15.547-11.664 21.469c-10.246 5.075-13.057 16.143-8.282 24.409 4.428 7.664-.268 12.312-4.392 13.967-10.49 4.212-16.595-8.819-16.595-8.819-4.413 7.252-6.952 15.767-6.952 24.875 0 26.362 21.275 47.746 47.591 47.939-12.033-.191-21.767-10.032-21.779-22.107-.055-4.784 1.092-9.89 3.41-15.175l1.28-2.92 6.486 1.895c1.041-5.122 3.665-9.683 7.732-13.372 3.835-3.479 7.576-4.954 7.99-5.111l4.416-1.672.479 4.698c.488 4.807 1.73 8.784 3.795 12.158 1.852 3.022 3.57 5.557 5.579 8.433 2.023 2.902 3.126 6.826 3.107 11.055-.001 5.908-2.304 11.462-6.484 15.642-4.179 4.18-9.738 6.481-15.654 6.481 26.481 0 47.949-21.462 47.949-47.944 0-15.001-6.892-28.393-17.677-37.183z" clip-path="url(#clipPath2360)" fill-rule="nonzero"/>
	<path d="m1255 325.03c.013-2.71-.644-5.216-1.801-6.876-1.802-2.579-3.755-5.431-5.817-8.797-1.81-2.956-3.119-6.215-3.959-9.871-3.276 2.414-7.375 6.875-7.513 14.143l-.09 4.745-8.943-2.614c-1.124 3.254-1.674 6.351-1.639 9.238l.001.045c0 8.207 6.677 14.878 14.879 14.878 3.977 0 7.714-1.546 10.523-4.354 2.811-2.812 4.359-6.547 4.359-10.52z" clip-path="url(#clipPath2352)" fill-rule="nonzero"/>
	<path id="q" d="m1265 1101.5h-24.114l4.938 9.363v19.534l19.176-.099z" clip-path="url(#clipPath2465)" fill-rule="nonzero"/>
	<path id="r" d="m1272.2 1114h3.424c6.965 0 12.636-5.53 12.869-12.44h-16.293z" clip-path="url(#clipPath2457)" fill-rule="nonzero"/>
	<path id="s" d="m1221.9 1075.1c1.779-4.576 5.24-8.318 9.625-10.455v-10.815h7.244v8.904c.41-.025.822-.043 1.239-.043h28.534v7.485h-28.534c-6.584 0-11.94 5.356-11.94 11.939 0 5.767 4.109 10.591 9.553 11.7.674.1 1.363.153 2.064.153h47.398c4.383 0 8.245-2.555 9.838-6.51.05-.124.095-.242.138-.361 1.028-2.823.911-5.869-.327-8.58l-1.072-2.344 1.809-1.837c2.091-2.123 3.242-4.946 3.242-7.948 0-3.001-1.151-5.824-3.242-7.947l-1.809-1.837 1.072-2.345c1.238-2.71 1.355-5.756.328-8.577s-3.074-5.079-5.765-6.36l-2.327-1.107.204-2.569c.237-2.971-.695-5.873-2.625-8.173-1.923-2.292-4.621-3.713-7.598-4.002l-2.561-.249-.685-2.48c-.793-2.874-2.662-5.283-5.262-6.784-1.726-.996-3.685-1.523-5.664-1.523-.964 0-1.921.121-2.845.36l-2.492.643-1.492-2.097c-1.728-2.429-4.309-4.053-7.265-4.574-.656-.116-1.324-.174-1.985-.174-2.295 0-4.511.688-6.408 1.992l-2.12 1.455-2.118-1.455c-1.898-1.304-4.114-1.992-6.409-1.992-.661 0-1.329.058-1.986.174-2.956.521-5.536 2.146-7.264 4.574l-1.492 2.097-2.493-.643c-.923-.239-1.881-.359-2.844-.359-1.98 0-3.939.526-5.664 1.522-2.6 1.501-4.469 3.911-5.262 6.784l-.685 2.48-2.562.249c-2.976.289-5.675 1.71-7.598 4.002-1.929 2.3-2.861 5.202-2.625 8.173l.205 2.569-2.328 1.108c-2.691 1.28-4.738 3.538-5.765 6.359-1.026 2.821-.909 5.867.329 8.577l1.072 2.345-1.809 1.837c-2.091 2.123-3.243 4.946-3.243 7.947 0 .129 0 .258.01.389.074 2.238 1.026 4.336 2.682 5.9 1.653 1.563 3.817 2.423 6.094 2.423zm55.696-6.462v-14.112h7.244v14.112c0 9.524-7.748 17.272-17.272 17.272h-22.109v-7.244h22.109c5.53 0 10.028-4.499 10.028-10.028zm-27.909-46.272h7.243v8.065h-7.243zm7.243 17.187c0 2.887 2.348 5.235 5.235 5.235 2.886 0 5.234-2.348 5.234-5.235h7.243c0 6.881-5.597 12.478-12.477 12.478-6.881 0-12.478-5.597-12.478-12.478zm-52.982 18.19c4.115 0 7.462-3.348 7.462-7.463s-3.347-7.462-7.462-7.462v-7.244c2.835 0 5.485.809 7.733 2.205 1.26-6.25 6.793-10.97 13.408-10.97 7.543 0 13.68 6.136 13.68 13.679v4.22h-7.244v-4.22c0-3.549-2.887-6.436-6.436-6.436-3.548 0-6.435 2.887-6.435 6.436v9.792c0 8.109-6.597 14.707-14.707 14.707v-7.244z" clip-path="url(#clipPath2449)" fill-rule="nonzero"/>
	<path d="m1234.7 1884.2c-4.091-4.572-6.344-10.47-6.344-16.609 0-13.736 11.175-24.911 24.911-24.911 5.761 0 11.234 1.991 15.585 5.48 4.351-3.489 9.824-5.48 15.586-5.48.427 0 .853.011 1.275.032-.338-16.385-13.77-29.611-30.234-29.611-9.208 0-17.808 4.19-23.495 11.205-5.686-7.015-14.287-11.205-23.495-11.205-16.676 0-30.242 13.567-30.242 30.242 0 7.453 2.735 14.614 7.701 20.162 4.956 5.537 46.036 44.442 46.036 44.442s7.251-6.625 13.713-12.824c-5.125-4.97-9.661-9.431-10.997-10.923z" clip-path="url(#clipPath2561)" fill-rule="nonzero"/>
	<path d="m1268.8 1907.3c.001 0 25.512-24.341 28.744-27.953 2.796-3.123 4.496-7.248 4.496-11.769 0-9.751-7.904-17.655-17.655-17.655-6.671 0-12.475 3.703-15.477 9.163h-.215c-3.002-5.46-8.807-9.163-15.478-9.163-9.751 0-17.655 7.904-17.655 17.655 0 4.521 1.7 8.646 4.496 11.769 3.232 3.612 28.743 27.952 28.744 27.953z" clip-path="url(#clipPath2553)" fill-rule="nonzero"/>

	<!-- Arrows -->
	<defs>
		<marker id="b" overflow="visible" markerHeight="1" markerWidth="1" orient="auto-start-reverse" preserveAspectRatio="xMidYMid" viewBox="0 0 1 1">
			<path transform="scale(.5)" d="m5.77 0-8.65 5v-10z" fill="context-stroke" fill-rule="evenodd" stroke="context-stroke" stroke-width="1pt"/>
		</marker>
		<marker id="j" overflow="visible" markerHeight="1" markerWidth="1" orient="auto-start-reverse" preserveAspectRatio="xMidYMid" viewBox="0 0 1 1">
			<path transform="scale(.5)" d="m5.77 0-8.65 5v-10z" fill="context-stroke" fill-rule="evenodd" stroke="context-stroke" stroke-width="1pt"/>
		</marker>
		<marker id="i" overflow="visible" markerHeight="1" markerWidth="1" orient="auto-start-reverse" preserveAspectRatio="xMidYMid" viewBox="0 0 1 1">
			<path transform="scale(.5)" d="m5.77 0-8.65 5v-10z" fill="context-stroke" fill-rule="evenodd" stroke="context-stroke" stroke-width="1pt"/>
		</marker>
		<marker id="a" overflow="visible" markerHeight="1" markerWidth="1" orient="auto-start-reverse" preserveAspectRatio="xMidYMid" viewBox="0 0 1 1">
			<path transform="scale(.5)" d="m5.77 0-8.65 5v-10z" fill="context-stroke" fill-rule="evenodd" stroke="context-stroke" stroke-width="1pt"/>
		</marker>
	</defs>
    <g fill="none" stroke="#838fc4" stroke-width="6.75px">
        <path d="m1660.1 531.7c96.381 0 1.127-347.15 115.12-347.15"/>
        <path d="m820.18 531.7c-96.381 0-1.127-390.55-115.12-390.55"/>
        <path d="m820.18 1312.8c-96.381 0-1.127-303.76-115.12-303.76"/>
        <path d="m820.18 1312.8c-94.782 0-1.127-173.58-115.12-173.58"/>
        <path d="m820.18 1312.8c-52.396 0-1.127-43.394-115.12-43.394"/>
        <path d="m820.18 2093.9c-96.381 0-1.127-347.15-115.12-347.15"/>
        <path d="m820.18 2093.9c-90.751 0-1.127-216.97-115.12-216.97"/>
        <path d="m820.18 2093.9h-115.12"/>
        <path d="m820.18 531.7c-61.986 0-1.127-43.394-115.12-43.394"/>
        <path d="m820.18 531.7c-94.334 0-1.127-216.97-115.12-216.97"/>
        <path d="m1660.1 1312.8c96.381 0 1.127-390.55 115.12-390.55"/>
        <path d="m1660.1 2093.9c96.381 0 1.127-477.33 115.12-477.33"/>
        <path d="m1660.1 2093.9c96.381 0 1.127-43.394 115.12-43.394"/>
        <path d="m1660.1 2093.9c94.87 0 1.127-303.76 115.12-303.76"/>
        <path d="m1660.1 1312.8c81.026 0 1.127-130.18 115.12-130.18"/>
        <path d="m1660.1 1312.8c96.381 0 1.127 43.394 115.12 43.394"/>
        <path d="m1660.1 531.7c82.37 0 1.127-130.18 115.12-130.18"/>
        <path d="m1660.1 531.7c96.381 0 1.127 43.394 115.12 43.394"/>
    </g>
    <g fill="#838fc4">
        <path d="m1417.8 2078.7 20.259 15.193-20.259 15.194z"/>
        <path d="m1062.5 2109.1-20.259-15.194 20.259-15.193z"/>
        <path d="m1417.8 1297.6 20.259 15.193-20.259 15.194z"/>
        <path d="m1062.5 1328-20.259-15.194 20.259-15.193z"/>
        <path d="m1417.8 516.5 20.259 15.193-20.259 15.194z"/>
        <path d="m1062.5 546.9-20.259-15.194 20.259-15.193z"/>
    </g>
    <g fill="none" stroke="#838fc4" stroke-width="6.75px">
        <path d="m1347.1 2093.9h74.757"/>
        <path d="m1133.2 2093.9h-74.757"/>
        <path d="m1347.1 1312.8h74.757"/>
        <path d="m1133.2 1312.8h-74.757"/>
        <path d="m1347.1 531.7h74.757"/>
        <path d="m1133.2 531.7h-74.757"/>
    </g>
    <g fill="none" stroke="#838fc4" stroke-linecap="round" stroke-linejoin="round" stroke-miterlimit="1.5" stroke-width="6.75px">
        <path d="m1240.2 952.3v-301.27" clip-rule="evenodd" marker-end="url(#b)" marker-start="url(#j)"/>
        <path d="m1235.6 1757.2v-301.27" clip-rule="evenodd" marker-end="url(#a)" marker-start="url(#i)"/>
    </g>

    <!-- Texts -->
    <!-- Arab -->
    <!-- 3 -->
    <g font-family="'Arabic Typesetting'" font-size="53.333px" text-anchor="middle" direction="rtl" fill="#000000">
        <text id="3.1-arab" x="1238.7888" y="397.33014">الهَوَى</text>
        <text id="3.2-arab" x="1238.88" y="1182.9497">العَقْل</text>
        <text id="3.3-arab" x="1238.9451" y="1964.6289">الخِدْمَة</text>
    </g>

    <!-- 6 -->
    <g font-family="'Arabic Typesetting'" font-size="53.333px" text-anchor="middle" direction="rtl" fill="#000000">
        <text id="6.1-arab" x="1545.0291" y="402.6947">التَّأْثِيْر</text>
        <text id="6.2-arab" x="931.29236" y="402.81189">الحَمَاسَة</text>
        <text id="6.3-arab" x="1543.74" y="1181.5825">التَّعَامُل</text>
        <text id="6.4-arab" x="1543.8051" y="1964.6289">الخِدْمَة</text>
        <text id="6.5-arab" x="935.87567" y="1964.668">الشُعُوْر</text>
        <text id="6.6-arab" x="941.99542" y="1182.8716">التَّفْكِيْر</text>
    </g>

    <!-- 40 -->
    <!-- Introvert -->
    <g font-family="'Arabic Typesetting'" font-size="42.667px" fill="#000000" text-anchor="end">
        <text id="40.1-arab" x="388.89423" y="85.923737">الهِمَّة</text>
        <text id="40.2-arab" x="391.78323" y="173.51611">الاِحْسَان</text>
        <text id="40.3-arab" x="389.11722" y="260.35651">العِزَّة</text>
        <text id="40.4-arab" x="390.69275" y="348.19952">الوَقَار</text>
        <text id="40.5-arab" x="389.71292" y="435.17664">العَزِيمَة</text>
        <text id="40.6-arab" x="391.14355" y="529.28595">النَّشَاط</text>
        <text id="40.7-arab" x="390.66669" y="955.10059">الفِرَاسَة</text>
        <text id="40.8-arab" x="389.08954" y="1043.9653">النُّبْل</text>
        <text id="40.9-arab" x="393.97391" y="1131.3239">حُسْنُ الظَّن</text>
        <text id="40.10-arab" x="389.28973" y="1225.189">الذَّكَاء</text>
        <text id="40.11-arab" x="389.85126" y="1305.9976">الحِكْمَة</text>
        <text id="40.12-arab" x="390.45993" y="1736.4855">الصِّدْق</text>
        <text id="40.13-arab" x="388.83398" y="1827.4207">العِفَّة</text>
        <text id="40.14-arab" x="390.78384" y="1913.4453">الصَّمْت</text>
        <text id="40.15-arab" x="389.29462" y="1998.3762">الحَيَاء</text>
        <text id="40.16-arab" x="389.92776" y="2088.4226">القَنَاعَة</text>
        <text id="40.17-arab" x="391.17935" y="2166.2783">الصَّبْر</text>
    </g>

    <!-- Extrovert -->
    <g font-family="'Arabic Typesetting'" font-size="42.667px" fill="#000000" text-anchor="start">
        <text id="40.18-arab" x="2073.3447" y="91.084877">الشَّجَاعَة</text>
        <text id="40.19-arab" x="2075.9995" y="176.36707">الغَيْرَة</text>
        <text id="40.20-arab" x="2073.7778" y="270.14862">المُنَافَسَة</text>
        <text id="40.21-arab" x="2073.4619" y="348.54932">النَّصِيْحَة</text>
        <text id="40.22-arab" x="2073.5205" y="433.74036">الفَصَاحَة</text>
        <text id="40.23-arab" x="2075.0603" y="522.35168">النُّصْرَة</text>
        <text id="40.24-arab" x="2075.6023" y="608.54303">الجُوْد</text>
        <text id="40.25-arab" x="2074.1555" y="781.76685">التَّعَاوُن</text>
        <text id="40.26-arab" x="2075.6594" y="875.18909">الاُلْفَة</text>
        <text id="40.27-arab" x="2074.9563" y="959.38281">العَدَالَة</text>
        <text id="40.28-arab" x="2075.4463" y="1040.4777">الوَفَاء</text>
        <text id="40.29-arab" x="2075.386" y="1135.9279">المُزَاح</text>
        <text id="40.30-arab" x="2073.428" y="1214.5161">البَشَاشَة</text>
        <text id="40.31-arab" x="2075.4446" y="1302.7659">الرِّفْق</text>
        <text id="40.32-arab" x="2075.207" y="1392.2916">الرَّحْمَة</text>
        <text id="40.33-arab" x="2075.176" y="1563.4095">المَحَبَّة</text>
        <text id="40.34-arab" x="2075.8889" y="1649.6968">الاِيْثَار</text>
        <text id="40.35-arab" x="2067.3735" y="1736.4968">كِتْمَانُ السِّرِّ</text>
        <text id="40.36-arab" x="2076.2063" y="1824.6753">السَّتْر</text>
        <text id="40.37-arab" x="2075.0476" y="1916.101">الاَمَانَة</text>
        <text id="40.38-arab" x="2076.2275" y="2002.8896">الاَنَاة</text>
        <text id="40.39-arab" x="2075.6108" y="2082.7168">الحِلْم</text>
        <text id="40.40-arab" x="2076.2178" y="2171.4993">التَّوَاضُع</text>
    </g>

	<!-- Latin -->
	<!-- In & Ex -->
    <g font-family="'Arabic Typesetting'" font-size="53.333px" text-align="center" text-anchor="middle" fill="#000000" stroke="#000000">
        <text id="2.1-indo" x="594.07471" y="2297.156"><tspan x="594.07471" y="2297.156">Introvert</tspan></text>
	    <text id="2.2-indo" x="1885.2305" y="2297.156"><tspan x="1885.2305" y="2297.156">Extrovert</tspan></text>
    </g>

	<!-- 3 -->
    <g font-family="'Arabic Typesetting'" font-size="42.667px" text-align="center" text-anchor="middle" fill="#000000">
        <text id="3.1-indo" x="1238.7888" y="455.33014">KARSA</text>
        <text id="3.2-indo" x="1238.88" y="1240.9497">CIPTA</text>
        <text id="3.3-indo" x="1238.9451" y="2022.6289">RASA</text>
    </g>

	<!-- 6 -->
    <g font-family="'Arabic Typesetting'" font-size="42.667px" text-align="center" text-anchor="middle" fill="#000000">
        <text id="6.1-indo" x="931.29236" y="460.81189">BEKERJA KERAS</text>
        <text id="6.2-indo" x="941.99542" y="1240.8716">BERPIKIR</text>
        <text id="6.3-indo" x="935.87567" y="2022.668">BERPERASAAN</text>
        <text id="6.4-indo" x="1545.0291" y="460.6947">MEMPENGARUHI</text>
        <text id="6.5-indo" x="1543.74" y="1239.5825">BEKERJASAMA</text>
        <text id="6.6-indo" x="1543.8051" y="2022.6289">MELAYANI</text>
	</g>

	<!-- 40 -->
    <!-- Introvert -->
    <g text-align="end" text-anchor="end" font-family="'Arabic Typesetting'" font-size="42.667px" fill="#000000">
        <text x="390.69275" y="384.19949">berwibawa</text>
        <text x="391.78323" y="209.51607">perfeksionis</text>
        <text x="389.71292" y="471.17661">bertekad kuat</text>
        <text x="391.14355" y="565.28589">bersemangat</text>
        <text x="388.89423" y="121.92369">bercita-cita tinggi</text>
        <text x="389.11722" y="296.35648">harga diri</text>
        <text x="389.28973" y="1261.189">cerdas</text>
        <text x="389.85126" y="1341.9976">ahli hikmah</text>
        <text x="389.08954" y="1079.9653">cerdik</text>
        <text x="390.66669" y="991.10052">berfirasat</text>
        <text x="393.97391" y="1167.3239">berprasangka baik</text>
        <text x="389.29462" y="2034.3762">pemalu</text>
        <text x="390.78384" y="1949.4453">pendiam</text>
        <text x="389.92776" y="2124.4226">sederhana</text>
        <text x="391.17935" y="2202.2783">penyabar</text>
        <text x="390.45993" y="1772.4855">jujur</text>
        <text x="388.83398" y="1863.4207">menjaga diri</text>
	</g>

    <!-- Extrovert -->
    <g font-family="'Arabic Typesetting'" font-size="42.667px" fill="#000000">
        <text x="2073.7778" y="306.14859">kompetitif</text>
        <text x="2073.3447" y="127.08484">pemberani</text>
        <text x="2075.6023" y="644.54297">dermawan</text>
        <text x="2075.0603" y="558.35162">menolong</text>
        <text x="2073.5205" y="469.74033">komunikatif</text>
        <text x="2073.4619" y="384.54929">penasehat</text>
        <text x="2075.9995" y="212.36702">pencemburu</text>
        <text x="2073.428" y="1250.5161">berseri-seri</text>
        <text x="2075.4446" y="1338.7659">lemah lembut</text>
        <text x="2075.4463" y="1076.4777">menepati janji</text>
        <text x="2074.1555" y="817.76678">bekerjaasama</text>
        <text x="2075.6594" y="911.18903">bersatu</text>
        <text x="2075.207" y="1428.2916">berbelas kasih</text>
        <text x="2074.9563" y="995.38281">adil</text>
        <text x="2075.386" y="1171.9279">humoris</text>
        <text x="2075.0476" y="1952.101">bertanggung jawab</text>
        <text x="2076.2275" y="2038.8896">tidak tergesa</text>
        <text x="2076.2063" y="1860.6753">menutup aib</text>
        <text x="2075.6108" y="2118.7168">santun</text>
        <text x="2067.3735" y="1772.4968">penjaga rahasia</text>
        <text x="2075.8889" y="1685.6968">melayani</text>
        <text x="2076.2178" y="2207.4993">rendah hati</text>
        <text x="2075.176" y="1599.4095">penuh cinta</text>
	</g>
</svg>
